<svg xmlns="http://www.w3.org/2000/svg" width="512.542" height="258.191" viewBox="0 0 512.542 258.191">
  <g id="Group_694" data-name="Group 694" transform="translate(-756.27 -2882.02)">
    <path id="Path_2065" data-name="Path 2065" d="M230.987,0,248.1,65.815H17.115L0,0Z" transform="matrix(-0.259, 0.966, -0.966, -0.259, 884.707, 2899.809)" fill="none" stroke="#da3540" stroke-width="1"/>
    <path id="Path_2065-2" data-name="Path 2065" d="M230.987,0,248.1,65.815H17.115L0,0Z" transform="matrix(-0.259, 0.966, -0.966, -0.259, 907.263, 2899.809)" fill="none" stroke="#da3540" stroke-width="1"/>
    <path id="Path_2065-3" data-name="Path 2065" d="M230.987,0,248.1,65.815H17.115L0,0Z" transform="matrix(-0.259, 0.966, -0.966, -0.259, 929.819, 2899.809)" fill="none" stroke="#da3540" stroke-width="1"/>
    <path id="Path_2065-4" data-name="Path 2065" d="M230.987,0,248.1,65.815H17.115L0,0Z" transform="matrix(-0.259, 0.966, -0.966, -0.259, 952.375, 2899.809)" fill="none" stroke="#da3540" stroke-width="1"/>
    <path id="Path_2065-5" data-name="Path 2065" d="M230.987,0,248.1,65.815H17.115L0,0Z" transform="matrix(-0.259, 0.966, -0.966, -0.259, 974.932, 2899.809)" fill="none" stroke="#da3540" stroke-width="1"/>
    <path id="Path_2065-6" data-name="Path 2065" d="M230.987,0,248.1,65.815H17.115L0,0Z" transform="matrix(-0.259, 0.966, -0.966, -0.259, 997.488, 2899.809)" fill="none" stroke="#da3540" stroke-width="1"/>
    <path id="Path_2065-7" data-name="Path 2065" d="M230.987,0,248.1,65.815H17.115L0,0Z" transform="matrix(-0.259, 0.966, -0.966, -0.259, 1020.044, 2899.809)" fill="none" stroke="#da3540" stroke-width="1"/>
    <path id="Path_2065-8" data-name="Path 2065" d="M230.987,0,248.1,65.815H17.115L0,0Z" transform="matrix(-0.259, 0.966, -0.966, -0.259, 1042.6, 2899.809)" fill="none" stroke="#da3540" stroke-width="1"/>
    <path id="Path_2065-9" data-name="Path 2065" d="M230.987,0,248.1,65.815H17.115L0,0Z" transform="matrix(-0.259, 0.966, -0.966, -0.259, 1065.156, 2899.809)" fill="none" stroke="#da3540" stroke-width="1"/>
    <path id="Path_2065-10" data-name="Path 2065" d="M230.987,0,248.1,65.815H17.115L0,0Z" transform="matrix(-0.259, 0.966, -0.966, -0.259, 1087.712, 2899.809)" fill="none" stroke="#da3540" stroke-width="1"/>
    <path id="Path_2065-11" data-name="Path 2065" d="M230.987,0,248.1,65.815H17.115L0,0Z" transform="matrix(-0.259, 0.966, -0.966, -0.259, 1110.268, 2899.809)" fill="none" stroke="#da3540" stroke-width="1"/>
    <path id="Path_2065-12" data-name="Path 2065" d="M230.987,0,248.1,65.815H17.115L0,0Z" transform="matrix(-0.259, 0.966, -0.966, -0.259, 1132.824, 2899.809)" fill="none" stroke="#da3540" stroke-width="1"/>
    <path id="Path_2065-13" data-name="Path 2065" d="M230.987,0,248.1,65.815H17.115L0,0Z" transform="matrix(-0.259, 0.966, -0.966, -0.259, 1155.381, 2899.809)" fill="none" stroke="#da3540" stroke-width="1"/>
    <path id="Path_2065-14" data-name="Path 2065" d="M230.987,0,248.1,65.815H17.115L0,0Z" transform="matrix(-0.259, 0.966, -0.966, -0.259, 1177.937, 2899.809)" fill="none" stroke="#da3540" stroke-width="1"/>
    <path id="Path_2065-15" data-name="Path 2065" d="M230.987,0,248.1,65.815H17.115L0,0Z" transform="matrix(-0.259, 0.966, -0.966, -0.259, 1200.493, 2899.809)" fill="none" stroke="#da3540" stroke-width="1"/>
    <path id="Path_2065-16" data-name="Path 2065" d="M230.987,0,248.1,65.815H17.115L0,0Z" transform="matrix(-0.259, 0.966, -0.966, -0.259, 1223.049, 2899.809)" fill="none" stroke="#da3540" stroke-width="1"/>
    <path id="Path_2065-17" data-name="Path 2065" d="M230.987,0,248.1,65.815H17.115L0,0Z" transform="matrix(-0.259, 0.966, -0.966, -0.259, 1245.605, 2899.809)" fill="none" stroke="#da3540" stroke-width="1"/>
    <path id="Path_2065-18" data-name="Path 2065" d="M230.987,0,248.1,65.815H17.115L0,0Z" transform="matrix(-0.259, 0.966, -0.966, -0.259, 1268.161, 2899.809)" fill="none" stroke="#da3540" stroke-width="1"/>
  </g>
</svg>
