<svg xmlns="http://www.w3.org/2000/svg" xmlns:xlink="http://www.w3.org/1999/xlink" width="989.244" height="96.635" viewBox="0 0 989.244 96.635">
  <defs>
    <clipPath id="clip-path">
      <rect width="989.244" height="96.635" fill="none"/>
    </clipPath>
  </defs>
  <g id="Repeat_Grid_3" data-name="Repeat Grid 3" clip-path="url(#clip-path)">
    <g transform="translate(-403.331 -1310.977)">
      <path id="Path_17" data-name="Path 17" d="M420.759.007,392.48,95.642h20.052L440.811.007Z" transform="translate(11.52 1311.469)" fill="none" stroke="#fcfcfc" stroke-width="1"/>
    </g>
    <g transform="translate(-348.331 -1310.977)">
      <path id="Path_17-2" data-name="Path 17" d="M420.759.007,392.48,95.642h20.052L440.811.007Z" transform="translate(11.52 1311.469)" fill="none" stroke="#fcfcfc" stroke-width="1"/>
    </g>
    <g transform="translate(-293.331 -1310.977)">
      <path id="Path_17-3" data-name="Path 17" d="M420.759.007,392.48,95.642h20.052L440.811.007Z" transform="translate(11.52 1311.469)" fill="none" stroke="#fcfcfc" stroke-width="1"/>
    </g>
    <g transform="translate(-238.331 -1310.977)">
      <path id="Path_17-4" data-name="Path 17" d="M420.759.007,392.48,95.642h20.052L440.811.007Z" transform="translate(11.52 1311.469)" fill="none" stroke="#fcfcfc" stroke-width="1"/>
    </g>
    <g transform="translate(-183.331 -1310.977)">
      <path id="Path_17-5" data-name="Path 17" d="M420.759.007,392.48,95.642h20.052L440.811.007Z" transform="translate(11.52 1311.469)" fill="none" stroke="#fcfcfc" stroke-width="1"/>
    </g>
    <g transform="translate(-128.331 -1310.977)">
      <path id="Path_17-6" data-name="Path 17" d="M420.759.007,392.48,95.642h20.052L440.811.007Z" transform="translate(11.52 1311.469)" fill="none" stroke="#fcfcfc" stroke-width="1"/>
    </g>
    <g transform="translate(-73.331 -1310.977)">
      <path id="Path_17-7" data-name="Path 17" d="M420.759.007,392.48,95.642h20.052L440.811.007Z" transform="translate(11.52 1311.469)" fill="none" stroke="#fcfcfc" stroke-width="1"/>
    </g>
    <g transform="translate(-18.331 -1310.977)">
      <path id="Path_17-8" data-name="Path 17" d="M420.759.007,392.48,95.642h20.052L440.811.007Z" transform="translate(11.52 1311.469)" fill="none" stroke="#fcfcfc" stroke-width="1"/>
    </g>
    <g transform="translate(36.669 -1310.977)">
      <path id="Path_17-9" data-name="Path 17" d="M420.759.007,392.48,95.642h20.052L440.811.007Z" transform="translate(11.52 1311.469)" fill="none" stroke="#fcfcfc" stroke-width="1"/>
    </g>
    <g transform="translate(91.669 -1310.977)">
      <path id="Path_17-10" data-name="Path 17" d="M420.759.007,392.48,95.642h20.052L440.811.007Z" transform="translate(11.52 1311.469)" fill="none" stroke="#fcfcfc" stroke-width="1"/>
    </g>
    <g transform="translate(146.669 -1310.977)">
      <path id="Path_17-11" data-name="Path 17" d="M420.759.007,392.48,95.642h20.052L440.811.007Z" transform="translate(11.52 1311.469)" fill="none" stroke="#fcfcfc" stroke-width="1"/>
    </g>
    <g transform="translate(201.669 -1310.977)">
      <path id="Path_17-12" data-name="Path 17" d="M420.759.007,392.48,95.642h20.052L440.811.007Z" transform="translate(11.52 1311.469)" fill="none" stroke="#fcfcfc" stroke-width="1"/>
    </g>
    <g transform="translate(256.669 -1310.977)">
      <path id="Path_17-13" data-name="Path 17" d="M420.759.007,392.48,95.642h20.052L440.811.007Z" transform="translate(11.52 1311.469)" fill="none" stroke="#fcfcfc" stroke-width="1"/>
    </g>
    <g transform="translate(311.669 -1310.977)">
      <path id="Path_17-14" data-name="Path 17" d="M420.759.007,392.48,95.642h20.052L440.811.007Z" transform="translate(11.52 1311.469)" fill="none" stroke="#fcfcfc" stroke-width="1"/>
    </g>
    <g transform="translate(366.669 -1310.977)">
      <path id="Path_17-15" data-name="Path 17" d="M420.759.007,392.48,95.642h20.052L440.811.007Z" transform="translate(11.52 1311.469)" fill="none" stroke="#fcfcfc" stroke-width="1"/>
    </g>
    <g transform="translate(421.669 -1310.977)">
      <path id="Path_17-16" data-name="Path 17" d="M420.759.007,392.48,95.642h20.052L440.811.007Z" transform="translate(11.52 1311.469)" fill="none" stroke="#fcfcfc" stroke-width="1"/>
    </g>
    <g transform="translate(476.669 -1310.977)">
      <path id="Path_17-17" data-name="Path 17" d="M420.759.007,392.48,95.642h20.052L440.811.007Z" transform="translate(11.52 1311.469)" fill="none" stroke="#fcfcfc" stroke-width="1"/>
    </g>
    <g transform="translate(531.669 -1310.977)">
      <path id="Path_17-18" data-name="Path 17" d="M420.759.007,392.48,95.642h20.052L440.811.007Z" transform="translate(11.52 1311.469)" fill="none" stroke="#fcfcfc" stroke-width="1"/>
    </g>
  </g>
</svg>
